<svg height="384pt" viewBox="0 0 384 384" width="384pt" xmlns="http://www.w3.org/2000/svg"><path d="m16 384c8.832031 0 16-7.167969 16-16v-32c0-26.472656 21.527344-48 48-48h32c26.472656 0 48 21.527344 48 48v32c0 8.832031 7.167969 16 16 16s16-7.167969 16-16v-32c0-33.105469-20.222656-61.585938-48.960938-73.726562 5.648438-8.746094 8.960938-19.121094 8.960938-30.273438 0-30.871094-25.128906-56-56-56s-56 25.128906-56 56c0 11.152344 3.3125 21.527344 8.960938 30.273438-28.738282 12.140624-48.960938 40.621093-48.960938 73.726562v32c0 8.832031 7.167969 16 16 16zm80-176c13.230469 0 24 10.769531 24 24s-10.769531 24-24 24-24-10.769531-24-24 10.769531-24 24-24zm0 0"/><path d="m352 0h-176c-17.648438 0-32 14.351562-32 32v119.984375c0 9.742187 5.816406 18.449219 14.816406 22.167969 3.039063 1.253906 6.214844 1.855468 9.351563 1.855468 6.136719 0 12.054687-2.3125 16.238281-6.519531l45.769531-41.488281h121.824219c17.648438 0 32-14.351562 32-32v-64c0-17.648438-14.351562-32-32-32zm0 96h-128c-.375 0-.71875.089844-1.089844.113281-.550781.039063-1.09375.070313-1.644531.167969-.53125.085938-1.027344.230469-1.53125.375-.488281.136719-.972656.273438-1.453125.457031-.519531.199219-1 .4375-1.496094.695313-.441406.222656-.875.4375-1.289062.703125-.496094.3125-.953125.671875-1.40625 1.039062-.273438.21875-.578125.378907-.832032.617188l-37.257812 33.769531v-101.9375h176zm0 0"/></svg>